Coordinates
version=1
nRows=26
nColumns=38
inDegrees=no

Units are S.I. units (second, meters, Newtons, ...)
If the header above contains a line with 'inDegrees', this indicates whether rotational values are in degrees (yes) or radians (no).

endheader
time	pelvis_tilt	pelvis_list	pelvis_rotation	pelvis_tx	pelvis_ty	pelvis_tz	hip_flexion_r	hip_adduction_r	hip_rotation_r	knee_angle_r	ankle_angle_r	subtalar_angle_r	mtp_angle_r	hip_flexion_l	hip_adduction_l	hip_rotation_l	knee_angle_l	ankle_angle_l	subtalar_angle_l	mtp_angle_l	lumbar_extension	lumbar_bending	lumbar_rotation	arm_flex_r	arm_add_r	arm_rot_r	elbow_flex_r	pro_sup_r	wrist_flex_r	wrist_dev_r	arm_flex_l	arm_add_l	arm_rot_l	elbow_flex_l	pro_sup_l	wrist_flex_l	wrist_dev_l
0	0.0533412	0.01354	-0.100802	-0.566887	0.997532	-0.258966	0.263022	-0.161103	-0.0236035	1.35517	-0.202264	0	0	0.106716	0.052733	-0.0303305	0.480018	-0.0792485	0	0	-0.154824	-0.0149687	0.0340273	-0.0230834	-0.186808	-0.0506055	0.838287	0.761331	0	0	-0.0643303	-0.225405	0.0798569	0.89526	0.785104	0	0
0.01	0.0494723	0.0102973	-0.0919874	-0.555183	0.999002	-0.26032	0.29014	-0.157401	-0.0295621	1.34517	-0.196002	0	0	0.0895544	0.0518763	-0.0268207	0.465721	-0.0752941	0	0	-0.151673	-0.00836698	0.0241992	-0.0303818	-0.189042	-0.0583835	0.841332	0.760157	0	0	-0.0496593	-0.225986	0.0868753	0.906255	0.776508	0	0
0.02	0.0481508	0.00560458	-0.0852946	-0.543528	1.00055	-0.261413	0.312858	-0.152064	-0.0355198	1.32958	-0.187356	0	0	0.069362	0.0491279	-0.024525	0.450669	-0.0751073	0	0	-0.151587	-0.000662168	0.0171047	-0.0371938	-0.19138	-0.0681551	0.844363	0.760914	0	0	-0.0346564	-0.226575	0.0951132	0.917731	0.776973	0	0
0.03	0.0469698	0.00193147	-0.0777744	-0.53183	1.00182	-0.262514	0.334494	-0.147591	-0.041374	1.31056	-0.177047	0	0	0.0488225	0.0478631	-0.0172077	0.434071	-0.0789052	0	0	-0.151575	0.00582195	0.00966001	-0.045097	-0.193087	-0.0803343	0.848988	0.763401	0	0	-0.0201973	-0.22819	0.106013	0.930461	0.786536	0	0
0.04	0.0453486	-0.00217913	-0.0705286	-0.520166	1.00275	-0.263513	0.355794	-0.141913	-0.0462333	1.287	-0.171305	0	0	0.0301326	0.0457185	-0.0143694	0.422053	-0.0736512	0	0	-0.151129	0.0125457	0.00170585	-0.0520778	-0.195397	-0.0901989	0.853389	0.762139	0	0	-0.00708572	-0.229306	0.111959	0.946691	0.778024	0	0
0.05	0.0434348	-0.00590284	-0.0632306	-0.508563	1.00339	-0.264494	0.375597	-0.137069	-0.051953	1.25931	-0.163074	0	0	0.0119942	0.0439437	-0.00920322	0.408473	-0.0754037	0	0	-0.150445	0.0188242	-0.00620696	-0.0584239	-0.197774	-0.0994932	0.856838	0.765628	0	0	0.00569047	-0.230475	0.118754	0.962504	0.788421	0	0
0.06	0.041843	-0.0100224	-0.0551051	-0.497275	1.00381	-0.265409	0.393005	-0.132432	-0.0599016	1.22578	-0.157892	0	0	-0.00526236	0.0412591	-0.000730235	0.398336	-0.0688876	0	0	-0.150776	0.025324	-0.0142365	-0.0632127	-0.198979	-0.111669	0.858922	0.763324	0	0	0.0192137	-0.232311	0.125707	0.98033	0.779099	0	0
0.07	0.0407755	-0.0140195	-0.0471355	-0.48593	1.00407	-0.266199	0.407281	-0.127848	-0.0683794	1.18652	-0.154105	0	0	-0.0230009	0.0381667	0.00669291	0.387521	-0.0657743	0	0	-0.151571	0.0314383	-0.022445	-0.0675425	-0.20031	-0.121827	0.860063	0.763683	0	0	0.0317974	-0.234134	0.132132	0.998252	0.779455	0	0
0.08	0.0397173	-0.0167938	-0.0408454	-0.474538	1.00409	-0.26679	0.419876	-0.123144	-0.0738827	1.1435	-0.149246	0	0	-0.0414873	0.0360884	0.0115235	0.374459	-0.0670354	0	0	-0.152285	0.0359001	-0.0293371	-0.0716833	-0.201683	-0.13079	0.860663	0.766992	0	0	0.0436201	-0.236033	0.138601	1.01623	0.789834	0	0
0.09	0.0388981	-0.0190437	-0.0331993	-0.463085	1.00382	-0.267377	0.430262	-0.119209	-0.0803095	1.09595	-0.14967	0	0	-0.0604594	0.0342147	0.0198554	0.362229	-0.0628866	0	0	-0.15316	0.0397133	-0.037115	-0.0760115	-0.202181	-0.141708	0.862081	0.765156	0	0	0.0554476	-0.238676	0.145283	1.03641	0.784115	0	0
0.1	0.0380487	-0.0205794	-0.0251859	-0.451612	1.00323	-0.267891	0.43908	-0.117266	-0.0894014	1.04583	-0.14858	0	0	-0.0786591	0.0327421	0.0264738	0.351283	-0.0601179	0	0	-0.153956	0.0425284	-0.0457093	-0.0792864	-0.202512	-0.150546	0.862049	0.765572	0	0	0.0666293	-0.241621	0.151827	1.05642	0.784669	0	0
0.11	0.0367703	-0.0213004	-0.0181746	-0.440074	1.00232	-0.268245	0.446436	-0.115488	-0.0976545	0.99286	-0.144541	0	0	-0.0961784	0.0319175	0.0306713	0.340727	-0.058515	0	0	-0.154212	0.0442207	-0.0538254	-0.0823432	-0.202756	-0.157935	0.861743	0.768644	0	0	0.0769011	-0.24468	0.158712	1.07587	0.794949	0	0
0.12	0.0357608	-0.0223417	-0.0106888	-0.428301	1.00119	-0.268581	0.450551	-0.113075	-0.107301	0.93397	-0.146174	0	0	-0.114605	0.0304632	0.0380297	0.330508	-0.0513433	0	0	-0.154305	0.0462941	-0.0624404	-0.0853551	-0.202593	-0.166558	0.861066	0.766127	0	0	0.0864023	-0.247654	0.164663	1.09636	0.785679	0	0
0.13	0.0333987	-0.0224856	-0.00400722	-0.416551	0.999699	-0.268801	0.454569	-0.110846	-0.116576	0.872316	-0.145162	0	0	-0.131095	0.0297522	0.0429212	0.32054	-0.0464424	0	0	-0.153121	0.0471786	-0.0700123	-0.0882577	-0.20224	-0.174313	0.859292	0.766263	0	0	0.0960695	-0.250262	0.170835	1.11529	0.785958	0	0
0.14	0.0299935	-0.0219047	0.00132908	-0.404865	0.99784	-0.268842	0.458363	-0.108508	-0.12502	0.808788	-0.142022	0	0	-0.145517	0.0296608	0.0455121	0.311732	-0.0442854	0	0	-0.15101	0.0470588	-0.0764331	-0.0906088	-0.20169	-0.180711	0.857471	0.769037	0	0	0.105812	-0.252625	0.176826	1.13394	0.795967	0	0
0.15	0.0274439	-0.0226523	0.00752803	-0.392866	0.995857	-0.268841	0.457766	-0.105278	-0.139176	0.738853	-0.147651	0	0	-0.160988	0.0275964	0.0500322	0.304753	-0.0359778	0	0	-0.149114	0.0483732	-0.0837932	-0.0934828	-0.20079	-0.188415	0.856769	0.765932	0	0	0.115028	-0.254209	0.180067	1.1537	0.78701	0	0
0.16	0.024818	-0.0242101	0.0140129	-0.380398	0.993688	-0.268783	0.454367	-0.101472	-0.157939	0.667798	-0.145843	0	0	-0.176596	0.0241617	0.0529379	0.296968	-0.0332204	0	0	-0.146055	0.050644	-0.0912501	-0.097374	-0.199987	-0.194516	0.855187	0.768822	0	0	0.122345	-0.255243	0.185129	1.16916	0.799318	0	0
0.17	0.0215258	-0.0249599	0.0184715	-0.367976	0.991263	-0.268561	0.451592	-0.0977186	-0.178763	0.596073	-0.148505	0	0	-0.190746	0.0217921	0.0538892	0.291868	-0.024359	0	0	-0.142496	0.0518709	-0.0971834	-0.0999009	-0.199308	-0.200042	0.852693	0.765298	0	0	0.128781	-0.256072	0.188301	1.18511	0.787968	0	0
0.18	0.0177623	-0.0243857	0.0212677	-0.35562	0.988617	-0.26821	0.449356	-0.0940133	-0.195337	0.526448	-0.147158	0	0	-0.203873	0.0211289	0.0529148	0.287155	-0.0183421	0	0	-0.138609	0.0514389	-0.101249	-0.102949	-0.198491	-0.205757	0.850956	0.765167	0	0	0.135815	-0.256579	0.193082	1.19887	0.788229	0	0
0.19	0.0138874	-0.0238004	0.0232331	-0.343095	0.985811	-0.267757	0.446642	-0.0893529	-0.206733	0.459821	-0.14102	0	0	-0.216519	0.0204693	0.0512182	0.282819	-0.0156254	0	0	-0.133967	0.0508209	-0.103667	-0.1075	-0.197815	-0.211226	0.850274	0.7671	0	0	0.143205	-0.255853	0.197695	1.21006	0.797354	0	0
0.2	0.0103903	-0.0240038	0.02536	-0.330374	0.982982	-0.267259	0.441844	-0.0831007	-0.210656	0.393473	-0.137647	0	0	-0.228596	0.0187946	0.047715	0.281858	-0.00678689	0	0	-0.129566	0.0512036	-0.10663	-0.112066	-0.197073	-0.216952	0.850739	0.764606	0	0	0.149262	-0.254785	0.200148	1.22137	0.7883	0	0
0.21	0.00633313	-0.0236497	0.0273977	-0.31757	0.98007	-0.266713	0.43685	-0.0767523	-0.203399	0.330623	-0.131055	0	0	-0.238859	0.0179255	0.0454972	0.28283	-0.000626486	0	0	-0.12461	0.051061	-0.1098	-0.116472	-0.196118	-0.221867	0.851243	0.764083	0	0	0.154561	-0.253481	0.202713	1.23069	0.788467	0	0
0.22	0.00290119	-0.0233683	0.0292205	-0.30464	0.977244	-0.266144	0.428002	-0.0694974	-0.17571	0.265105	-0.129445	0	0	-0.249734	0.0172776	0.0447749	0.28378	0.00279568	0	0	-0.120571	0.0512518	-0.112034	-0.120371	-0.194878	-0.227238	0.850182	0.765037	0	0	0.159766	-0.25164	0.206564	1.23794	0.80239	0	0
0.23	-0.000583818	-0.0228301	0.0318175	-0.29163	0.974446	-0.265717	0.420226	-0.0648514	-0.155884	0.210313	-0.123053	0	0	-0.259886	0.0170116	0.0425961	0.286184	0.00758817	0	0	-0.11638	0.0515449	-0.114405	-0.124372	-0.193964	-0.232425	0.848579	0.764194	0	0	0.164719	-0.249001	0.208842	1.245	0.792013	0	0
0.24	-0.00367974	-0.0223693	0.0337739	-0.278618	0.971753	-0.265204	0.412885	-0.0608805	-0.121432	0.165205	-0.11724	0	0	-0.267651	0.0163782	0.0399572	0.293706	0.0122974	0	0	-0.112535	0.0520647	-0.115716	-0.128077	-0.192651	-0.238594	0.847105	0.764838	0	0	0.169342	-0.245599	0.211586	1.24857	0.803643	0	0
0.25	-0.00725745	-0.0218824	0.0354612	-0.265638	0.96914	-0.264626	0.416231	-0.0583564	-0.112378	0.152139	-0.106664	0	0	-0.272365	0.0154076	0.038821	0.305427	0.0157193	0	0	-0.108472	0.052693	-0.117372	-0.131224	-0.191462	-0.243191	0.846041	0.764441	0	0	0.172544	-0.241798	0.211065	1.25289	0.795945	0	0
